# xmcd
#
# Track frame offsets: 
#        182
#        19062
#        37620
#        53247
#        66827
#        91727
#        111842
#        142990
#        167832
#        195785
#        221635
#        250272
#
# Disc length: 3765 seconds
#
# Revision: 3
# Processed by: cddbd v1.5.2PL0 Copyright (c) Steve Scherf et al.
# Submitted via: ExactAudioCopy v1.0b3
#
DISCID=970eb30c
DTITLE=Henne Bekker - Dan Gibson's Solitudes - The Classics II - Explo
DTITLE=ring Nature With Music - Vivaldi's 4 Seasons
DYEAR=1992
DGENRE=
TTITLE0=Spring
TTITLE1=Summer
TTITLE2=Autumn
TTITLE3=Winter
TTITLE4=Spring Song
TTITLE5=Rustle of Spring
TTITLE6=Etude in E Major
TTITLE7=Fur Elise
TTITLE8=Serenade
TTITLE9=Barcarolle
TTITLE10=On Wings of Song
TTITLE11=Liebestraum
EXTD=YEAR: 1992
EXTT0=
EXTT1=
EXTT2=
EXTT3=
EXTT4=
EXTT5=
EXTT6=
EXTT7=
EXTT8=
EXTT9=
EXTT10=
EXTT11=
PLAYORDER=
